# Blender v2.90.1 OBJ File: ''
# www.blender.org
mtllib gizmo_rotation.mtl
o Torus.002
v 0.500000 0.000000 0.000000
v 0.497321 0.010000 0.000000
v 0.490000 0.017321 0.000000
v 0.480000 0.020000 0.000000
v 0.470000 0.017321 0.000000
v 0.462679 0.010000 0.000000
v 0.460000 0.000000 0.000000
v 0.462679 -0.010000 0.000000
v 0.470000 -0.017321 0.000000
v 0.480000 -0.020000 0.000000
v 0.490000 -0.017321 0.000000
v 0.497321 -0.010000 0.000000
v 0.000000 0.000000 0.500000
v 0.000000 0.010000 0.497321
v 0.000000 0.017321 0.490000
v 0.000000 0.020000 0.480000
v 0.000000 0.017321 0.470000
v 0.000000 0.010000 0.462679
v 0.000000 0.000000 0.460000
v 0.000000 -0.010000 0.462679
v 0.000000 -0.017321 0.470000
v 0.000000 -0.020000 0.480000
v 0.000000 -0.017321 0.490000
v 0.000000 -0.010000 0.497321
v 0.065263 0.000000 0.495722
v 0.064913 0.010000 0.493066
v 0.063958 0.017321 0.485808
v 0.062652 0.020000 0.475894
v 0.061347 0.017321 0.465979
v 0.060392 0.010000 0.458721
v 0.060042 0.000000 0.456065
v 0.060392 -0.010000 0.458721
v 0.061347 -0.017321 0.465979
v 0.062652 -0.020000 0.475894
v 0.063958 -0.017321 0.485808
v 0.064913 -0.010000 0.493066
v 0.129409 0.000000 0.482963
v 0.128716 0.010000 0.480375
v 0.126821 0.017321 0.473304
v 0.124233 0.020000 0.463644
v 0.121645 0.017321 0.453985
v 0.119750 0.010000 0.446914
v 0.119057 0.000000 0.444326
v 0.119750 -0.010000 0.446914
v 0.121645 -0.017321 0.453985
v 0.124233 -0.020000 0.463644
v 0.126821 -0.017321 0.473304
v 0.128716 -0.010000 0.480375
v 0.191342 0.000000 0.461940
v 0.190316 0.010000 0.459464
v 0.187515 0.017321 0.452701
v 0.183688 0.020000 0.443462
v 0.179861 0.017321 0.434223
v 0.177060 0.010000 0.427460
v 0.176034 0.000000 0.424985
v 0.177060 -0.010000 0.427460
v 0.179861 -0.017321 0.434223
v 0.183688 -0.020000 0.443462
v 0.187515 -0.017321 0.452701
v 0.190316 -0.010000 0.459464
v 0.250000 0.000000 0.433013
v 0.248660 0.010000 0.430692
v 0.245000 0.017321 0.424352
v 0.240000 0.020000 0.415692
v 0.235000 0.017321 0.407032
v 0.231340 0.010000 0.400692
v 0.230000 0.000000 0.398372
v 0.231340 -0.010000 0.400692
v 0.235000 -0.017321 0.407032
v 0.240000 -0.020000 0.415692
v 0.245000 -0.017321 0.424352
v 0.248660 -0.010000 0.430692
v 0.304381 0.000000 0.396677
v 0.302749 0.010000 0.394551
v 0.298293 0.017321 0.388743
v 0.292205 0.020000 0.380810
v 0.286118 0.017321 0.372876
v 0.281661 0.010000 0.367068
v 0.280030 0.000000 0.364943
v 0.281661 -0.010000 0.367068
v 0.286118 -0.017321 0.372876
v 0.292205 -0.020000 0.380810
v 0.298293 -0.017321 0.388743
v 0.302749 -0.010000 0.394551
v 0.353553 0.000000 0.353554
v 0.351659 0.010000 0.351659
v 0.346482 0.017321 0.346483
v 0.339411 0.020000 0.339411
v 0.332340 0.017321 0.332340
v 0.327164 0.010000 0.327164
v 0.325269 0.000000 0.325269
v 0.327164 -0.010000 0.327164
v 0.332340 -0.017321 0.332340
v 0.339411 -0.020000 0.339411
v 0.346482 -0.017321 0.346483
v 0.351659 -0.010000 0.351659
v 0.396677 0.000000 0.304381
v 0.394551 0.010000 0.302749
v 0.388743 0.017321 0.298293
v 0.380810 0.020000 0.292205
v 0.372876 0.017321 0.286118
v 0.367068 0.010000 0.281661
v 0.364943 0.000000 0.280030
v 0.367068 -0.010000 0.281661
v 0.372876 -0.017321 0.286118
v 0.380810 -0.020000 0.292205
v 0.388743 -0.017321 0.298293
v 0.394551 -0.010000 0.302749
v 0.433013 0.000000 0.250000
v 0.430692 0.010000 0.248660
v 0.424352 0.017321 0.245000
v 0.415692 0.020000 0.240000
v 0.407032 0.017321 0.235000
v 0.400692 0.010000 0.231340
v 0.398372 0.000000 0.230000
v 0.400692 -0.010000 0.231340
v 0.407032 -0.017321 0.235000
v 0.415692 -0.020000 0.240000
v 0.424352 -0.017321 0.245000
v 0.430692 -0.010000 0.248660
v 0.461940 0.000000 0.191342
v 0.459464 0.010000 0.190317
v 0.452701 0.017321 0.187515
v 0.443462 0.020000 0.183688
v 0.434223 0.017321 0.179861
v 0.427460 0.010000 0.177060
v 0.424984 0.000000 0.176035
v 0.427460 -0.010000 0.177060
v 0.434223 -0.017321 0.179861
v 0.443462 -0.020000 0.183688
v 0.452701 -0.017321 0.187515
v 0.459464 -0.010000 0.190317
v 0.482963 0.000000 0.129409
v 0.480375 0.010000 0.128716
v 0.473304 0.017321 0.126821
v 0.463644 0.020000 0.124233
v 0.453985 0.017321 0.121645
v 0.446914 0.010000 0.119750
v 0.444326 0.000000 0.119057
v 0.446914 -0.010000 0.119750
v 0.453985 -0.017321 0.121645
v 0.463644 -0.020000 0.124233
v 0.473304 -0.017321 0.126821
v 0.480375 -0.010000 0.128716
v 0.495722 0.000000 0.065263
v 0.493066 0.010000 0.064913
v 0.485808 0.017321 0.063958
v 0.475894 0.020000 0.062653
v 0.465979 0.017321 0.061347
v 0.458721 0.010000 0.060392
v 0.456065 0.000000 0.060042
v 0.458721 -0.010000 0.060392
v 0.465979 -0.017321 0.061347
v 0.475894 -0.020000 0.062653
v 0.485808 -0.017321 0.063958
v 0.493066 -0.010000 0.064913
v 0.000000 0.000000 0.500000
v 0.000000 0.000000 0.000000
v 0.500000 0.000000 0.000000
v 0.497321 0.010000 0.000000
v 0.490000 0.017321 0.000000
v 0.480000 0.020000 0.000000
v 0.470000 0.017321 0.000000
v 0.462679 0.010000 0.000000
v 0.460000 0.000000 0.000000
v 0.460000 0.000000 0.000000
v 0.460000 0.000000 0.000000
v 0.462679 -0.010000 0.000000
v 0.470000 -0.017321 0.000000
v 0.480000 -0.020000 0.000000
v 0.490000 -0.017321 0.000000
v 0.497321 -0.010000 0.000000
v 0.000000 0.000000 0.500000
v 0.000000 0.010000 0.497321
v 0.000000 0.017321 0.490000
v 0.000000 0.020000 0.480000
v 0.000000 0.017321 0.470000
v 0.000000 0.010000 0.462679
v 0.000000 0.000000 0.460000
v 0.000000 0.000000 0.460000
v 0.000000 0.000000 0.460000
v 0.000000 -0.010000 0.462679
v 0.000000 -0.017321 0.470000
v 0.000000 -0.020000 0.480000
v 0.000000 -0.017321 0.490000
v 0.000000 -0.010000 0.497321
v 0.060042 0.000000 0.456065
v 0.060042 0.000000 0.456065
v 0.119057 0.000000 0.444326
v 0.119057 0.000000 0.444326
v 0.176034 0.000000 0.424985
v 0.176034 0.000000 0.424985
v 0.230000 0.000000 0.398372
v 0.230000 0.000000 0.398372
v 0.280030 0.000000 0.364943
v 0.280030 0.000000 0.364943
v 0.325269 0.000000 0.325269
v 0.325269 0.000000 0.325269
v 0.364943 0.000000 0.280030
v 0.364943 0.000000 0.280030
v 0.398372 0.000000 0.230000
v 0.398372 0.000000 0.230000
v 0.424984 0.000000 0.176035
v 0.424984 0.000000 0.176035
v 0.444326 0.000000 0.119057
v 0.444326 0.000000 0.119057
v 0.456065 0.000000 0.060042
v 0.456065 0.000000 0.060042
vt 0.000000 0.000000
vt 0.000000 0.000000
vt 0.000000 0.000000
vt 0.000000 0.000000
vt 0.000000 0.000000
vt 0.000000 0.000000
vt 0.000000 0.000000
vt 0.000000 0.000000
vt 0.000000 0.000000
vt 0.000000 0.000000
vt 0.000000 0.000000
vt 0.000000 0.000000
vt 0.000000 0.000000
vt 0.000000 0.000000
vt 0.250000 0.500000
vt 0.250000 0.583333
vt 0.250000 0.666667
vt 0.250000 0.750000
vt 0.250000 0.833333
vt 0.250000 0.916667
vt 0.250000 0.000000
vt 0.250000 0.083333
vt 0.250000 0.166667
vt 0.250000 0.250000
vt 0.250000 0.333333
vt 0.250000 0.416667
vt 0.500000 0.500000
vt 0.500000 0.416667
vt 0.500000 0.333333
vt 0.500000 0.250000
vt 0.500000 0.166667
vt 0.500000 0.083333
vt 0.500000 0.000000
vt 0.500000 0.916667
vt 0.500000 0.833333
vt 0.500000 0.750000
vt 0.500000 0.666667
vt 0.500000 0.583333
vt 0.250000 0.500000
vt 0.270833 0.500000
vt 0.270833 0.583333
vt 0.250000 0.583333
vt 0.270833 0.666667
vt 0.250000 0.666667
vt 0.270833 0.750000
vt 0.250000 0.750000
vt 0.270833 0.833333
vt 0.250000 0.833333
vt 0.270833 0.916667
vt 0.250000 0.916667
vt 0.270833 1.000000
vt 0.250000 1.000000
vt 0.250000 0.000000
vt 0.270833 0.000000
vt 0.270833 0.083333
vt 0.250000 0.083333
vt 0.270833 0.166667
vt 0.250000 0.166667
vt 0.270833 0.250000
vt 0.250000 0.250000
vt 0.270833 0.333333
vt 0.250000 0.333333
vt 0.270833 0.416667
vt 0.250000 0.416667
vt 0.291667 0.500000
vt 0.291667 0.583333
vt 0.291667 0.666667
vt 0.291667 0.750000
vt 0.291667 0.833333
vt 0.291667 0.916667
vt 0.291667 1.000000
vt 0.291667 0.000000
vt 0.291667 0.083333
vt 0.291667 0.166667
vt 0.291667 0.250000
vt 0.291667 0.333333
vt 0.291667 0.416667
vt 0.312500 0.500000
vt 0.312500 0.583333
vt 0.312500 0.666667
vt 0.312500 0.750000
vt 0.312500 0.833333
vt 0.312500 0.916667
vt 0.312500 1.000000
vt 0.312500 0.000000
vt 0.312500 0.083333
vt 0.312500 0.166667
vt 0.312500 0.250000
vt 0.312500 0.333333
vt 0.312500 0.416667
vt 0.333333 0.500000
vt 0.333333 0.583333
vt 0.333333 0.666667
vt 0.333333 0.750000
vt 0.333333 0.833333
vt 0.333333 0.916667
vt 0.333333 1.000000
vt 0.333333 0.000000
vt 0.333333 0.083333
vt 0.333333 0.166667
vt 0.333333 0.250000
vt 0.333333 0.333333
vt 0.333333 0.416667
vt 0.354167 0.500000
vt 0.354167 0.583333
vt 0.354167 0.666667
vt 0.354167 0.750000
vt 0.354167 0.833333
vt 0.354167 0.916667
vt 0.354167 1.000000
vt 0.354167 0.000000
vt 0.354167 0.083333
vt 0.354167 0.166667
vt 0.354167 0.250000
vt 0.354167 0.333333
vt 0.354167 0.416667
vt 0.375000 0.500000
vt 0.375000 0.583333
vt 0.375000 0.666667
vt 0.375000 0.750000
vt 0.375000 0.833333
vt 0.375000 0.916667
vt 0.375000 1.000000
vt 0.375000 0.000000
vt 0.375000 0.083333
vt 0.375000 0.166667
vt 0.375000 0.250000
vt 0.375000 0.333333
vt 0.375000 0.416667
vt 0.395833 0.500000
vt 0.395833 0.583333
vt 0.395833 0.666667
vt 0.395833 0.750000
vt 0.395833 0.833333
vt 0.395833 0.916667
vt 0.395833 1.000000
vt 0.395833 0.000000
vt 0.395833 0.083333
vt 0.395833 0.166667
vt 0.395833 0.250000
vt 0.395833 0.333333
vt 0.395833 0.416667
vt 0.416667 0.500000
vt 0.416667 0.583333
vt 0.416667 0.666667
vt 0.416667 0.750000
vt 0.416667 0.833333
vt 0.416667 0.916667
vt 0.416667 1.000000
vt 0.416667 0.000000
vt 0.416667 0.083333
vt 0.416667 0.166667
vt 0.416667 0.250000
vt 0.416667 0.333333
vt 0.416667 0.416667
vt 0.437500 0.500000
vt 0.437500 0.583333
vt 0.437500 0.666667
vt 0.437500 0.750000
vt 0.437500 0.833333
vt 0.437500 0.916667
vt 0.437500 1.000000
vt 0.437500 0.000000
vt 0.437500 0.083333
vt 0.437500 0.166667
vt 0.437500 0.250000
vt 0.437500 0.333333
vt 0.437500 0.416667
vt 0.458333 0.500000
vt 0.458333 0.583333
vt 0.458333 0.666667
vt 0.458333 0.750000
vt 0.458333 0.833333
vt 0.458333 0.916667
vt 0.458333 1.000000
vt 0.458333 0.000000
vt 0.458333 0.083333
vt 0.458333 0.166667
vt 0.458333 0.250000
vt 0.458333 0.333333
vt 0.458333 0.416667
vt 0.479167 0.500000
vt 0.479167 0.583333
vt 0.479167 0.666667
vt 0.479167 0.750000
vt 0.479167 0.833333
vt 0.479167 0.916667
vt 0.479167 1.000000
vt 0.479167 0.000000
vt 0.479167 0.083333
vt 0.479167 0.166667
vt 0.479167 0.250000
vt 0.479167 0.333333
vt 0.479167 0.416667
vt 0.500000 0.500000
vt 0.500000 0.583333
vt 0.500000 0.666667
vt 0.500000 0.750000
vt 0.500000 0.833333
vt 0.500000 0.916667
vt 0.500000 1.000000
vt 0.500000 0.000000
vt 0.500000 0.083333
vt 0.500000 0.166667
vt 0.500000 0.250000
vt 0.500000 0.333333
vt 0.500000 0.416667
vn 0.0000 -1.0000 0.0000
vn -1.0000 0.0000 0.0000
vn 0.0000 0.0000 -1.0000
vn 0.0654 0.0000 0.9978
vn 0.1305 0.0000 0.9914
vn 0.1134 0.4954 0.8612
vn 0.0568 0.4946 0.8672
vn 0.0663 0.8614 0.5036
vn 0.0333 0.8609 0.5077
vn 0.0014 0.9999 0.0107
vn 0.0007 0.9999 0.0108
vn -0.0642 0.8707 -0.4876
vn -0.0322 0.8702 -0.4916
vn -0.1127 0.5047 -0.8559
vn -0.0565 0.5039 -0.8619
vn -0.1261 0.2588 -0.9576
vn -0.0632 0.2583 -0.9640
vn -0.0632 -0.2583 -0.9640
vn -0.1261 -0.2588 -0.9576
vn -0.1127 -0.5047 -0.8559
vn -0.0565 -0.5039 -0.8619
vn -0.0642 -0.8707 -0.4876
vn -0.0322 -0.8702 -0.4916
vn 0.0014 -0.9999 0.0107
vn 0.0007 -0.9999 0.0108
vn 0.0663 -0.8614 0.5036
vn 0.0333 -0.8609 0.5077
vn 0.1134 -0.4954 0.8612
vn 0.0568 -0.4946 0.8672
vn 0.2588 0.0000 0.9659
vn 0.2248 0.4954 0.8390
vn 0.1315 0.8614 0.4907
vn 0.0028 0.9999 0.0104
vn -0.1273 0.8707 -0.4751
vn -0.2234 0.5047 -0.8339
vn -0.2500 0.2588 -0.9330
vn -0.2500 -0.2588 -0.9330
vn -0.2234 -0.5047 -0.8339
vn -0.1273 -0.8707 -0.4751
vn 0.0028 -0.9999 0.0104
vn 0.1315 -0.8614 0.4907
vn 0.2248 -0.4954 0.8390
vn 0.3827 0.0000 0.9239
vn 0.3324 0.4954 0.8025
vn 0.1944 0.8614 0.4693
vn 0.0041 0.9999 0.0099
vn -0.1882 0.8707 -0.4544
vn -0.3303 0.5047 -0.7975
vn -0.3696 0.2588 -0.8924
vn -0.3696 -0.2588 -0.8924
vn -0.3303 -0.5047 -0.7975
vn -0.1882 -0.8707 -0.4544
vn 0.0041 -0.9999 0.0099
vn 0.1944 -0.8614 0.4693
vn 0.3324 -0.4954 0.8025
vn 0.5000 0.0000 0.8660
vn 0.4343 0.4954 0.7523
vn 0.2540 0.8614 0.4399
vn 0.0054 0.9999 0.0093
vn -0.2459 0.8707 -0.4259
vn -0.4316 0.5047 -0.7476
vn -0.4830 0.2588 -0.8365
vn -0.4830 -0.2588 -0.8365
vn -0.4316 -0.5047 -0.7476
vn -0.2459 -0.8707 -0.4259
vn 0.0054 -0.9999 0.0093
vn 0.2540 -0.8614 0.4399
vn 0.4343 -0.4954 0.7523
vn 0.6088 0.0000 0.7933
vn 0.5288 0.4954 0.6891
vn 0.3092 0.8614 0.4030
vn 0.0066 0.9999 0.0085
vn -0.2994 0.8707 -0.3902
vn -0.5255 0.5047 -0.6849
vn -0.5880 0.2588 -0.7663
vn -0.5880 -0.2588 -0.7663
vn -0.5255 -0.5047 -0.6849
vn -0.2994 -0.8707 -0.3902
vn 0.0066 -0.9999 0.0085
vn 0.3092 -0.8614 0.4030
vn 0.5288 -0.4954 0.6891
vn 0.7071 0.0000 0.7071
vn 0.6142 0.4954 0.6142
vn 0.3592 0.8614 0.3592
vn 0.0076 0.9999 0.0076
vn -0.3478 0.8707 -0.3478
vn -0.6104 0.5047 -0.6104
vn -0.6830 0.2588 -0.6830
vn -0.6830 -0.2588 -0.6830
vn -0.6104 -0.5047 -0.6104
vn -0.3478 -0.8707 -0.3478
vn 0.0076 -0.9999 0.0076
vn 0.3592 -0.8614 0.3592
vn 0.6142 -0.4954 0.6142
vn 0.7933 0.0000 0.6088
vn 0.6891 0.4954 0.5288
vn 0.4030 0.8614 0.3092
vn 0.0085 0.9999 0.0066
vn -0.3902 0.8707 -0.2994
vn -0.6849 0.5047 -0.5255
vn -0.7663 0.2588 -0.5880
vn -0.7663 -0.2588 -0.5880
vn -0.6849 -0.5047 -0.5255
vn -0.3902 -0.8707 -0.2994
vn 0.0085 -0.9999 0.0066
vn 0.4030 -0.8614 0.3092
vn 0.6891 -0.4954 0.5288
vn 0.8660 0.0000 0.5000
vn 0.7523 0.4954 0.4343
vn 0.4399 0.8614 0.2540
vn 0.0093 0.9999 0.0054
vn -0.4259 0.8707 -0.2459
vn -0.7476 0.5047 -0.4316
vn -0.8365 0.2588 -0.4830
vn -0.8365 -0.2588 -0.4830
vn -0.7476 -0.5047 -0.4316
vn -0.4259 -0.8707 -0.2459
vn 0.0093 -0.9999 0.0054
vn 0.4399 -0.8614 0.2540
vn 0.7523 -0.4954 0.4343
vn 0.9239 0.0000 0.3827
vn 0.8025 0.4954 0.3324
vn 0.4693 0.8614 0.1944
vn 0.0099 0.9999 0.0041
vn -0.4544 0.8707 -0.1882
vn -0.7975 0.5047 -0.3304
vn -0.8924 0.2588 -0.3696
vn -0.8924 -0.2588 -0.3696
vn -0.7975 -0.5047 -0.3304
vn -0.4544 -0.8707 -0.1882
vn 0.0099 -0.9999 0.0041
vn 0.4693 -0.8614 0.1944
vn 0.8025 -0.4954 0.3324
vn 0.9659 0.0000 0.2588
vn 0.8390 0.4954 0.2248
vn 0.4907 0.8614 0.1315
vn 0.0104 0.9999 0.0028
vn -0.4751 0.8707 -0.1273
vn -0.8339 0.5047 -0.2234
vn -0.9330 0.2588 -0.2500
vn -0.9330 -0.2588 -0.2500
vn -0.8339 -0.5047 -0.2234
vn -0.4751 -0.8707 -0.1273
vn 0.0104 -0.9999 0.0028
vn 0.4907 -0.8614 0.1315
vn 0.8390 -0.4954 0.2248
vn 0.9914 0.0000 0.1305
vn 0.8612 0.4954 0.1134
vn 0.5036 0.8614 0.0663
vn 0.0107 0.9999 0.0014
vn -0.4876 0.8707 -0.0642
vn -0.8559 0.5047 -0.1127
vn -0.9576 0.2588 -0.1261
vn -0.9576 -0.2588 -0.1261
vn -0.8559 -0.5047 -0.1127
vn -0.4876 -0.8707 -0.0642
vn 0.0107 -0.9999 0.0014
vn 0.5036 -0.8614 0.0663
vn 0.8612 -0.4954 0.1134
vn 0.9978 0.0000 0.0654
vn 0.8672 0.4946 0.0568
vn 0.5077 0.8609 0.0333
vn 0.0108 0.9999 0.0007
vn -0.4916 0.8702 -0.0322
vn -0.8619 0.5039 -0.0565
vn -0.9640 0.2583 -0.0632
vn -0.9640 -0.2583 -0.0632
vn -0.8619 -0.5039 -0.0565
vn -0.4916 -0.8702 -0.0322
vn 0.0108 -0.9999 0.0007
vn 0.5077 -0.8609 0.0333
vn 0.8672 -0.4946 0.0568
usemtl None
s off
f 181/1/1 158/2/1 167/3/1 151/4/1 139/5/1 127/6/1 115/7/1 103/8/1 91/9/1 79/10/1 67/11/1 55/12/1 43/13/1 31/14/1
s 1
f 173/15/2 174/16/2 175/17/2 176/18/2 177/19/2 178/20/2 179/21/2 182/22/2 183/23/2 184/24/2 185/25/2 186/26/2
f 159/27/3 172/28/3 171/29/3 170/30/3 169/31/3 168/32/3 165/33/3 164/34/3 163/35/3 162/36/3 161/37/3 160/38/3
f 13/39/4 25/40/5 26/41/6 14/42/7
f 14/42/7 26/41/6 27/43/8 15/44/9
f 15/44/9 27/43/8 28/45/10 16/46/11
f 16/46/11 28/45/10 29/47/12 17/48/13
f 17/48/13 29/47/12 30/49/14 18/50/15
f 18/50/15 30/49/14 187/51/16 19/52/17
f 180/53/18 188/54/19 32/55/20 20/56/21
f 20/56/21 32/55/20 33/57/22 21/58/23
f 21/58/23 33/57/22 34/59/24 22/60/25
f 22/60/25 34/59/24 35/61/26 23/62/27
f 23/62/27 35/61/26 36/63/28 24/64/29
f 24/64/29 36/63/28 25/40/5 13/39/4
f 25/40/5 37/65/30 38/66/31 26/41/6
f 26/41/6 38/66/31 39/67/32 27/43/8
f 27/43/8 39/67/32 40/68/33 28/45/10
f 28/45/10 40/68/33 41/69/34 29/47/12
f 29/47/12 41/69/34 42/70/35 30/49/14
f 30/49/14 42/70/35 189/71/36 187/51/16
f 188/54/19 190/72/37 44/73/38 32/55/20
f 32/55/20 44/73/38 45/74/39 33/57/22
f 33/57/22 45/74/39 46/75/40 34/59/24
f 34/59/24 46/75/40 47/76/41 35/61/26
f 35/61/26 47/76/41 48/77/42 36/63/28
f 36/63/28 48/77/42 37/65/30 25/40/5
f 37/65/30 49/78/43 50/79/44 38/66/31
f 38/66/31 50/79/44 51/80/45 39/67/32
f 39/67/32 51/80/45 52/81/46 40/68/33
f 40/68/33 52/81/46 53/82/47 41/69/34
f 41/69/34 53/82/47 54/83/48 42/70/35
f 42/70/35 54/83/48 191/84/49 189/71/36
f 190/72/37 192/85/50 56/86/51 44/73/38
f 44/73/38 56/86/51 57/87/52 45/74/39
f 45/74/39 57/87/52 58/88/53 46/75/40
f 46/75/40 58/88/53 59/89/54 47/76/41
f 47/76/41 59/89/54 60/90/55 48/77/42
f 48/77/42 60/90/55 49/78/43 37/65/30
f 49/78/43 61/91/56 62/92/57 50/79/44
f 50/79/44 62/92/57 63/93/58 51/80/45
f 51/80/45 63/93/58 64/94/59 52/81/46
f 52/81/46 64/94/59 65/95/60 53/82/47
f 53/82/47 65/95/60 66/96/61 54/83/48
f 54/83/48 66/96/61 193/97/62 191/84/49
f 192/85/50 194/98/63 68/99/64 56/86/51
f 56/86/51 68/99/64 69/100/65 57/87/52
f 57/87/52 69/100/65 70/101/66 58/88/53
f 58/88/53 70/101/66 71/102/67 59/89/54
f 59/89/54 71/102/67 72/103/68 60/90/55
f 60/90/55 72/103/68 61/91/56 49/78/43
f 61/91/56 73/104/69 74/105/70 62/92/57
f 62/92/57 74/105/70 75/106/71 63/93/58
f 63/93/58 75/106/71 76/107/72 64/94/59
f 64/94/59 76/107/72 77/108/73 65/95/60
f 65/95/60 77/108/73 78/109/74 66/96/61
f 66/96/61 78/109/74 195/110/75 193/97/62
f 194/98/63 196/111/76 80/112/77 68/99/64
f 68/99/64 80/112/77 81/113/78 69/100/65
f 69/100/65 81/113/78 82/114/79 70/101/66
f 70/101/66 82/114/79 83/115/80 71/102/67
f 71/102/67 83/115/80 84/116/81 72/103/68
f 72/103/68 84/116/81 73/104/69 61/91/56
f 73/104/69 85/117/82 86/118/83 74/105/70
f 74/105/70 86/118/83 87/119/84 75/106/71
f 75/106/71 87/119/84 88/120/85 76/107/72
f 76/107/72 88/120/85 89/121/86 77/108/73
f 77/108/73 89/121/86 90/122/87 78/109/74
f 78/109/74 90/122/87 197/123/88 195/110/75
f 196/111/76 198/124/89 92/125/90 80/112/77
f 80/112/77 92/125/90 93/126/91 81/113/78
f 81/113/78 93/126/91 94/127/92 82/114/79
f 82/114/79 94/127/92 95/128/93 83/115/80
f 83/115/80 95/128/93 96/129/94 84/116/81
f 84/116/81 96/129/94 85/117/82 73/104/69
f 85/117/82 97/130/95 98/131/96 86/118/83
f 86/118/83 98/131/96 99/132/97 87/119/84
f 87/119/84 99/132/97 100/133/98 88/120/85
f 88/120/85 100/133/98 101/134/99 89/121/86
f 89/121/86 101/134/99 102/135/100 90/122/87
f 90/122/87 102/135/100 199/136/101 197/123/88
f 198/124/89 200/137/102 104/138/103 92/125/90
f 92/125/90 104/138/103 105/139/104 93/126/91
f 93/126/91 105/139/104 106/140/105 94/127/92
f 94/127/92 106/140/105 107/141/106 95/128/93
f 95/128/93 107/141/106 108/142/107 96/129/94
f 96/129/94 108/142/107 97/130/95 85/117/82
f 97/130/95 109/143/108 110/144/109 98/131/96
f 98/131/96 110/144/109 111/145/110 99/132/97
f 99/132/97 111/145/110 112/146/111 100/133/98
f 100/133/98 112/146/111 113/147/112 101/134/99
f 101/134/99 113/147/112 114/148/113 102/135/100
f 102/135/100 114/148/113 201/149/114 199/136/101
f 200/137/102 202/150/115 116/151/116 104/138/103
f 104/138/103 116/151/116 117/152/117 105/139/104
f 105/139/104 117/152/117 118/153/118 106/140/105
f 106/140/105 118/153/118 119/154/119 107/141/106
f 107/141/106 119/154/119 120/155/120 108/142/107
f 108/142/107 120/155/120 109/143/108 97/130/95
f 109/143/108 121/156/121 122/157/122 110/144/109
f 110/144/109 122/157/122 123/158/123 111/145/110
f 111/145/110 123/158/123 124/159/124 112/146/111
f 112/146/111 124/159/124 125/160/125 113/147/112
f 113/147/112 125/160/125 126/161/126 114/148/113
f 114/148/113 126/161/126 203/162/127 201/149/114
f 202/150/115 204/163/128 128/164/129 116/151/116
f 116/151/116 128/164/129 129/165/130 117/152/117
f 117/152/117 129/165/130 130/166/131 118/153/118
f 118/153/118 130/166/131 131/167/132 119/154/119
f 119/154/119 131/167/132 132/168/133 120/155/120
f 120/155/120 132/168/133 121/156/121 109/143/108
f 121/156/121 133/169/134 134/170/135 122/157/122
f 122/157/122 134/170/135 135/171/136 123/158/123
f 123/158/123 135/171/136 136/172/137 124/159/124
f 124/159/124 136/172/137 137/173/138 125/160/125
f 125/160/125 137/173/138 138/174/139 126/161/126
f 126/161/126 138/174/139 205/175/140 203/162/127
f 204/163/128 206/176/141 140/177/142 128/164/129
f 128/164/129 140/177/142 141/178/143 129/165/130
f 129/165/130 141/178/143 142/179/144 130/166/131
f 130/166/131 142/179/144 143/180/145 131/167/132
f 131/167/132 143/180/145 144/181/146 132/168/133
f 132/168/133 144/181/146 133/169/134 121/156/121
f 133/169/134 145/182/147 146/183/148 134/170/135
f 134/170/135 146/183/148 147/184/149 135/171/136
f 135/171/136 147/184/149 148/185/150 136/172/137
f 136/172/137 148/185/150 149/186/151 137/173/138
f 137/173/138 149/186/151 150/187/152 138/174/139
f 138/174/139 150/187/152 207/188/153 205/175/140
f 206/176/141 208/189/154 152/190/155 140/177/142
f 140/177/142 152/190/155 153/191/156 141/178/143
f 141/178/143 153/191/156 154/192/157 142/179/144
f 142/179/144 154/192/157 155/193/158 143/180/145
f 143/180/145 155/193/158 156/194/159 144/181/146
f 144/181/146 156/194/159 145/182/147 133/169/134
f 145/182/147 1/195/160 2/196/161 146/183/148
f 146/183/148 2/196/161 3/197/162 147/184/149
f 147/184/149 3/197/162 4/198/163 148/185/150
f 148/185/150 4/198/163 5/199/164 149/186/151
f 149/186/151 5/199/164 6/200/165 150/187/152
f 150/187/152 6/200/165 7/201/166 207/188/153
f 208/189/154 166/202/167 8/203/168 152/190/155
f 152/190/155 8/203/168 9/204/169 153/191/156
f 153/191/156 9/204/169 10/205/170 154/192/157
f 154/192/157 10/205/170 11/206/171 155/193/158
f 155/193/158 11/206/171 12/207/172 156/194/159
f 156/194/159 12/207/172 1/195/160 145/182/147
l 158 157
